<?xml version="1.0" encoding="UTF-8" standalone="no"?>
<!DOCTYPE svg PUBLIC "-//W3C//DTD SVG 1.1//EN" "http://www.w3.org/Graphics/SVG/1.1/DTD/svg11.dtd">
<svg xmlns:dc="http://purl.org/dc/elements/1.1/" version="1.1" xmlns:xl="http://www.w3.org/1999/xlink" xmlns="http://www.w3.org/2000/svg" viewBox="1366.1192 769.9231 418.41023 401.7246" width="418.41023" height="401.7246">
  <defs/>
  <metadata> Produced by OmniGraffle 7.17.5\n2020-09-19 11:24:29 +0000</metadata>
  <g id="Logo" stroke="none" stroke-dasharray="none" fill="none" fill-opacity="1" stroke-opacity="1">
    <title>Logo</title>
    <g id="Logo_Layer_1">
      <title>Layer 1</title>
      <g id="Group_98">
        <g id="Graphic_96">
          <path d="M 1692.2604 987.7061 L 1722.0853 987.7061 C 1723.7421 987.7061 1725.0853 986.363 1725.0853 984.7061 L 1725.0853 877.3203 C 1725.0853 875.6635 1723.7421 874.3203 1722.0853 874.3203 L 1421.786 874.3203 C 1420.1292 874.3203 1418.786 875.6635 1418.786 877.3203 L 1418.786 984.7061 C 1418.786 986.363 1420.1292 987.7061 1421.786 987.7061 L 1451.611 987.7061 C 1523.3664 959.3596 1620.505 959.3596 1692.2604 987.7061 Z M 1540.7546 889.4532 L 1603.1168 889.4532 L 1571.9357 951.8154 Z M 1549.2585 894.9512 L 1571.9357 940.3056 L 1594.6128 894.9512 Z M 1635.546 892.2878 L 1692.2388 892.2878 L 1692.2388 948.9808 L 1635.546 948.9808 Z M 1640.9288 897.6185 L 1640.9288 942.9729 L 1686.2831 942.9729 L 1686.2831 897.6185 Z M 1507.358 898.586 C 1519.535 910.7629 1519.535 930.5057 1507.358 942.6827 C 1495.181 954.8597 1475.4383 954.8597 1463.2614 942.6827 C 1451.0843 930.5057 1451.0843 910.7629 1463.2614 898.586 C 1475.4383 886.4089 1495.181 886.4089 1507.358 898.586 M 1503.3493 902.5948 C 1493.3863 892.6317 1477.2331 892.6317 1467.2702 902.5948 C 1457.3071 912.5577 1457.3071 928.7109 1467.2702 938.6739 C 1477.2331 948.6369 1493.3863 948.6369 1503.3493 938.6739 C 1513.3123 928.7109 1513.3123 912.5577 1503.3493 902.5948" fill="black"/>
        </g>
        <g id="Graphic_95">
          <path d="M 1784.5294 991.8346 L 1577.4888 991.8346 L 1577.4888 1006.2981 L 1784.5294 1006.2981 Z M 1729.2868 1105.2204 C 1736.783 1101.1874 1743.6608 1096.316 1749.8282 1090.7569 L 1577.4888 1090.7569 L 1577.4888 1105.2204 Z M 1759.2299 1081.119 C 1774.6085 1063.1837 1783.7477 1040.2762 1784.4815 1015.936 L 1577.4888 1015.936 L 1577.4888 1025.8503 L 1596.674 1025.8503 C 1607.4726 1018.2694 1622.4763 1019.3042 1632.1268 1028.9548 C 1642.9366 1039.7645 1642.9366 1057.2905 1632.1268 1068.1002 C 1622.4763 1077.7508 1607.4726 1078.7856 1596.674 1071.2047 L 1577.4888 1071.2047 L 1577.4888 1081.119 Z" fill="black"/>
        </g>
        <g id="Graphic_94">
          <path d="M 1421.1755 1105.2204 L 1566.9675 1105.2204 L 1566.9675 1090.7017 L 1400.7893 1090.7017 C 1406.9074 1096.2712 1413.7332 1101.1605 1421.1755 1105.2204 Z M 1366.5086 1015.8808 C 1367.1615 1040.1936 1376.2018 1063.0951 1391.4744 1081.0639 L 1566.9675 1081.0639 L 1566.9675 1064.118 L 1597.8675 1064.118 C 1606.2055 1071.8586 1619.2425 1071.6728 1627.3548 1063.5605 C 1635.6573 1055.258 1635.6573 1041.797 1627.3548 1033.4945 C 1619.2425 1025.3822 1606.2055 1025.1964 1597.8675 1032.937 L 1566.9675 1032.937 L 1566.9675 1015.8808 Z M 1366.4706 991.8346 L 1366.4706 1006.243 L 1566.9675 1006.243 L 1566.9675 991.8346 Z" fill="black"/>
        </g>
        <g id="Graphic_93">
          <path d="M 1366.148 1015.8808 C 1366.7161 1040.165 1375.6529 1063.0603 1390.8146 1081.0639 L 1401.7826 1081.0639 C 1385.5677 1063.3978 1375.6518 1040.4416 1374.2904 1015.8808 Z M 1784.4405 1015.8808 L 1777.0402 1015.8808 C 1775.6788 1040.4416 1765.7629 1063.3978 1749.548 1081.0639 L 1759.774 1081.0639 C 1774.9356 1063.0603 1783.8724 1040.165 1784.4405 1015.8808 Z M 1784.4693 1006.243 L 1784.4693 928.1565 C 1784.4693 888.7166 1762.368 852.6031 1727.2478 834.6567 L 1623.0727 781.4232 L 1623.0727 781.4232 C 1593.0658 766.0897 1557.5228 766.0897 1527.5158 781.4232 L 1423.3408 834.6567 C 1388.2205 852.6031 1366.1192 888.7166 1366.1192 928.1565 L 1366.1192 1006.243 L 1374.129 1006.243 L 1374.129 932.599 C 1374.129 893.1591 1396.2303 857.0456 1431.3506 839.0992 L 1527.8869 789.7691 L 1527.8869 789.7691 C 1527.8869 789.7691 1527.8869 789.7691 1527.8869 789.7691 L 1527.8869 789.7691 C 1557.8938 774.4356 1593.4368 774.4356 1623.4437 789.7691 L 1623.4437 789.7691 L 1719.98 839.0992 C 1755.1003 857.0456 1777.2016 893.1591 1777.2016 932.599 L 1777.2016 1006.243 Z M 1575.2943 1171.6477 C 1575.2943 1171.6477 1575.2943 1171.6477 1575.2943 1171.6477 C 1591.6817 1171.6477 1608.0692 1167.8143 1623.0727 1160.1475 L 1623.0727 1160.1475 L 1727.2478 1106.914 C 1735.838 1102.5244 1743.6494 1097.048 1750.549 1090.7017 L 1739.4398 1090.7017 C 1733.524 1095.6335 1727.013 1099.9559 1719.98 1103.5497 L 1623.4437 1152.8798 C 1608.4403 1160.5466 1592.0528 1164.38 1575.6653 1164.38 C 1575.6653 1164.38 1575.6653 1164.38 1575.6653 1164.38 C 1559.2778 1164.38 1542.8903 1160.5466 1527.8869 1152.8798 L 1431.3506 1103.5497 C 1424.3176 1099.9559 1417.8067 1095.6335 1411.8908 1090.7017 L 1400.0396 1090.7017 C 1406.9392 1097.048 1414.7505 1102.5244 1423.3408 1106.914 L 1527.5158 1160.1475 C 1542.5193 1167.8143 1558.9068 1171.6477 1575.2943 1171.6477 Z" fill="black"/>
        </g>
      </g>
    </g>
  </g>
</svg>
